<svg width="106" height="50" viewBox="0 0 106 50" fill="none" xmlns="http://www.w3.org/2000/svg">
<path fill-rule="evenodd" clip-rule="evenodd" d="M106 13.4706C106 12.1061 104.894 11 103.529 11H80.4706C79.1061 11 78 12.1061 78 13.4706V36.5294C78 37.8939 79.1061 39 80.4706 39H103.529C104.894 39 106 37.8939 106 36.5294V13.4706ZM101.465 35.0748C101.851 35.641 102.121 36.027 102.275 36.2329C102.327 36.3101 102.417 36.4259 102.545 36.5803C102.625 36.6602 102.705 36.7449 102.785 36.8347C102.884 36.9463 102.99 37.0521 103.102 37.1511C103.183 37.2229 103.255 37.29 103.317 37.3524C103.356 37.3828 103.39 37.4099 103.422 37.4336C103.527 37.5137 103.648 37.584 103.781 37.584C103.933 37.584 104.051 37.4664 104.056 37.314C104.064 37.0537 103.973 36.6934 103.781 36.2329C103.523 35.5895 103.163 34.8689 102.7 34.0711C102.237 33.2733 101.709 32.4241 101.117 31.5233C100.551 30.6226 99.9848 29.7476 99.4186 28.8983C98.8782 28.0491 98.3763 27.277 97.9131 26.5821C97.4756 25.8616 97.1796 25.2954 97.0252 24.8836C96.8965 24.5491 97.0124 24.0858 97.3726 23.4939C97.7587 22.8763 98.2348 22.22 98.801 21.5252C99.3671 20.8303 99.9719 20.1097 100.615 19.3634C101.284 18.6171 101.838 17.9351 102.275 17.3174C102.738 16.6998 103.034 16.1722 103.163 15.7347C103.317 15.2715 103.163 14.9884 102.7 14.8855C102.082 14.731 101.49 14.8726 100.924 15.3101C100.358 15.7219 99.8432 16.2494 99.38 16.8928C98.9425 17.5105 98.5565 18.141 98.2219 18.7844C97.8874 19.4277 97.63 19.8652 97.4499 20.0969C97.3984 20.1741 97.3083 20.2899 97.1796 20.4443C97.051 20.5987 96.9223 20.7788 96.7936 20.9847C96.6649 21.1649 96.5362 21.3321 96.4076 21.4866C96.2357 21.6929 96.0176 21.9378 95.7705 21.8328C95.6108 21.7649 95.4371 21.6238 95.2495 21.4094C94.9149 20.9976 94.5418 20.4571 94.13 19.788C93.744 19.0932 93.3322 18.3469 92.8947 17.5491C92.4829 16.7255 92.0712 15.9921 91.6594 15.3487C91.2734 14.6796 90.9002 14.1649 90.5399 13.8046C90.3334 13.5833 90.1439 13.4593 89.9712 13.4325C89.72 13.3935 89.5463 13.6522 89.5377 13.9063C89.5367 13.9353 89.5362 13.9657 89.5362 13.9976C89.5362 14.2862 89.6678 14.5624 89.7947 14.8216C89.8215 14.8764 89.8512 14.9363 89.8837 15.0013C90.0638 15.3101 90.2568 15.6446 90.4627 16.0049C90.6686 16.3395 90.8487 16.6612 91.0032 16.97C91.1833 17.2531 91.2991 17.4332 91.3506 17.5105C91.4535 17.6906 91.6337 18.0252 91.891 18.5141C92.1484 19.0031 92.4057 19.5307 92.6631 20.0969C92.9462 20.6373 93.2035 21.1649 93.4351 21.6796C93.6209 22.0325 93.7664 22.3117 93.8717 22.5171C93.9414 22.653 94.0005 22.7951 94.0271 22.9455C94.1122 23.4277 94.0436 23.9579 93.8212 24.5362C93.5638 25.1796 93.1778 25.8744 92.6631 26.6207C92.1484 27.3413 91.5565 28.0877 90.8874 28.8597L88.88 31.0987C88.2109 31.8193 87.5804 32.5141 86.9885 33.1832C86.4223 33.8266 85.9848 34.4057 85.676 34.9204C85.4701 35.2807 85.3543 35.641 85.3285 36.0013C85.3097 36.2456 85.3252 36.4555 85.3751 36.6312C85.4103 36.7554 85.4741 36.8764 85.5826 36.9461C85.6989 37.0208 85.8458 37.0404 86.0234 37.0049C86.3065 36.9535 86.6282 36.6961 86.9885 36.2329C88.3267 34.5344 89.6392 32.8873 90.926 31.2917C92.1611 29.7601 93.5386 28.2759 95.0583 26.8392C95.1851 26.7193 95.3455 26.6114 95.4971 26.6978C95.6246 26.7706 95.7866 26.9122 95.9829 27.1226C96.3432 27.4829 96.755 27.9847 97.2182 28.6281C97.6815 29.2715 98.1704 29.9921 98.6851 30.7899C99.2256 31.5877 99.7274 32.3597 100.191 33.106C100.68 33.8524 101.104 34.5086 101.465 35.0748Z" fill="#5030E5"/>
<path d="M14.96 38.4C12.0533 38.4 9.48 38.2667 7.24 38C5 37.7333 3.38667 37.4667 2.4 37.2V36.4L1.6 32.12C1.97333 32.5467 2.68 33 3.72 33.48C4.78667 33.96 6.2 34.3733 7.96 34.72C9.72 35.04 11.8133 35.2 14.24 35.2C16.4267 35.2 18.08 35.0533 19.2 34.76C20.3467 34.44 21.12 34.0133 21.52 33.48C21.9467 32.92 22.16 32.28 22.16 31.56C22.16 30.7067 21.8133 30.0267 21.12 29.52C20.4267 29.0133 19.3867 28.6133 18 28.32C16.64 28 14.9467 27.72 12.92 27.48C10.28 27.1333 8.16 26.68 6.56 26.12C4.96 25.5333 3.8 24.76 3.08 23.8C2.36 22.84 2 21.6267 2 20.16C2 18.9067 2.37333 17.7867 3.12 16.8C3.89333 15.8133 5.05333 15.04 6.6 14.48C8.14667 13.8933 10.12 13.6 12.52 13.6C15.2933 13.6 17.7067 13.7333 19.76 14C21.8133 14.2667 23.2667 14.5333 24.12 14.8V15.6L25.32 19.2C24.76 18.8533 23.8933 18.4933 22.72 18.12C21.5733 17.7467 20.1867 17.44 18.56 17.2C16.9333 16.9333 15.12 16.8 13.12 16.8C11.4667 16.8 10.1467 16.92 9.16 17.16C8.2 17.4 7.50667 17.76 7.08 18.24C6.68 18.6933 6.48 19.2533 6.48 19.92C6.48 20.8 6.8 21.5067 7.44 22.04C8.10667 22.5733 9.06667 22.9867 10.32 23.28C11.6 23.5733 13.1467 23.8267 14.96 24.04C17.84 24.36 20.1333 24.8133 21.84 25.4C23.5467 25.9867 24.7733 26.7733 25.52 27.76C26.2667 28.7467 26.64 30.0267 26.64 31.6C26.64 32.64 26.3867 33.5867 25.88 34.44C25.4 35.2667 24.6667 35.9867 23.68 36.6C22.6933 37.1867 21.4667 37.64 20 37.96C18.56 38.2533 16.88 38.4 14.96 38.4ZM30.0822 38C30.2689 38 30.4422 37.8133 30.6022 37.44C30.7889 37.0667 30.8822 36.4533 30.8822 35.6V21.68C30.8822 20.8267 30.7889 20.2267 30.6022 19.88C30.4422 19.5067 30.2689 19.3067 30.0822 19.28H34.9622V35.6C34.9622 36.4533 35.0422 37.0667 35.2022 37.44C35.3889 37.8133 35.5755 38 35.7622 38H30.0822ZM32.5222 15.44C31.7489 15.44 31.1489 15.2267 30.7222 14.8C30.2955 14.3467 30.0822 13.8267 30.0822 13.24C30.0822 12.6267 30.2822 12.1067 30.6822 11.68C31.1089 11.2533 31.7222 11.04 32.5222 11.04C33.3222 11.04 33.9222 11.2533 34.3222 11.68C34.7489 12.1067 34.9622 12.6267 34.9622 13.24C34.9622 13.8267 34.7489 14.3467 34.3222 14.8C33.8955 15.2267 33.2955 15.44 32.5222 15.44ZM46.9838 38.4C45.1438 38.4 43.8104 38.0133 42.9838 37.24C42.1571 36.44 41.7438 35.1467 41.7438 33.36V22.08H38.1438V19.28C39.3704 19.28 40.3304 19.1333 41.0238 18.84C41.7171 18.52 42.2104 17.9733 42.5038 17.2C42.7971 16.4267 42.9438 15.3467 42.9438 13.96H45.8238V19.28H53.4638C53.2771 19.5467 53.0904 19.9467 52.9038 20.48C52.7438 20.9867 52.6638 21.52 52.6638 22.08H45.8238V32.76C45.8238 33.9867 46.0504 34.76 46.5038 35.08C46.9571 35.4 47.5304 35.56 48.2238 35.56C48.8904 35.56 49.5038 35.4267 50.0638 35.16C50.6504 34.8667 51.1571 34.52 51.5838 34.12C52.0371 33.72 52.3838 33.3333 52.6238 32.96V34.2L53.0238 36.48C52.7571 36.7467 52.3438 37.04 51.7838 37.36C51.2238 37.6533 50.5438 37.8933 49.7438 38.08C48.9438 38.2933 48.0238 38.4 46.9838 38.4ZM65.7472 38.4C63.6405 38.4 61.9072 38.16 60.5472 37.68C59.1872 37.1733 58.1205 36.48 57.3472 35.6C56.5739 34.72 56.0272 33.6933 55.7072 32.52C55.4139 31.3467 55.2672 30.0667 55.2672 28.68C55.2672 25.6667 56.1205 23.28 57.8272 21.52C59.5605 19.76 62.1205 18.88 65.5072 18.88C67.4805 18.88 69.0672 19.1467 70.2672 19.68C71.4939 20.2133 72.4139 20.92 73.0272 21.8C73.6672 22.68 74.0939 23.64 74.3072 24.68C74.5472 25.6933 74.6672 26.6933 74.6672 27.68V29.56C74.6672 29.48 74.2939 29.4 73.5472 29.32C72.8272 29.2133 71.6005 29.16 69.8672 29.16H59.3472C59.3472 31.1333 59.9339 32.6933 61.1072 33.84C62.2805 34.9867 64.0272 35.56 66.3472 35.56C68.3472 35.56 69.9872 35.32 71.2672 34.84C72.5739 34.3333 73.4405 33.84 73.8672 33.36V34.16L74.2672 36.8C73.6805 37.1467 72.6405 37.5067 71.1472 37.88C69.6805 38.2267 67.8805 38.4 65.7472 38.4ZM60.9472 26.52H70.6672C70.6672 25.8267 70.5205 25.1067 70.2272 24.36C69.9339 23.6133 69.4139 22.9867 68.6672 22.48C67.9205 21.9467 66.8672 21.68 65.5072 21.68C64.3605 21.68 63.3605 21.88 62.5072 22.28C61.6539 22.6533 60.9872 23.1467 60.5072 23.76C60.0539 24.3733 59.8272 25.0267 59.8272 25.72C59.8272 25.9867 59.9072 26.1867 60.0672 26.32C60.2272 26.4533 60.5205 26.52 60.9472 26.52Z" fill="#5030E5"/>
</svg>
