<!DOCTYPE svg PUBLIC "-//W3C//DTD SVG 1.1//EN" "http://www.w3.org/Graphics/SVG/1.1/DTD/svg11.dtd">
<!-- Uploaded to: SVG Repo, www.svgrepo.com, Transformed by: SVG Repo Mixer Tools -->
<svg width="256px" height="256px" viewBox="0 0 24.00 24.00" xmlns="http://www.w3.org/2000/svg" fill="#f00000" stroke="#f00000" stroke-width="0.00024000000000000003" transform="rotate(0)matrix(1, 0, 0, 1, 0, 0)">
<g id="SVGRepo_bgCarrier" stroke-width="0"/>
<g id="SVGRepo_tracerCarrier" stroke-linecap="round" stroke-linejoin="round" stroke="#CCCCCC" stroke-width="0.144"/>
<g id="SVGRepo_iconCarrier">
<path d="M18.5 21h-13A4.505 4.505 0 0 1 1 16.5v-9A4.505 4.505 0 0 1 5.5 3h13A4.505 4.505 0 0 1 23 7.5v9a4.505 4.505 0 0 1-4.5 4.5zM5.5 4A3.504 3.504 0 0 0 2 7.5v9A3.504 3.504 0 0 0 5.5 20h13a3.504 3.504 0 0 0 3.5-3.5v-9A3.504 3.504 0 0 0 18.5 4z"/>
<path fill="none" d="M0 0h24v24H0z"/>
</g>
</svg>