<svg width="24" height="70" viewBox="0 0 24 70" fill="none" xmlns="http://www.w3.org/2000/svg">
<g id="Mask Group">
<mask id="mask0_211_7547" style="mask-type:alpha" maskUnits="userSpaceOnUse" x="0" y="0" width="24" height="70">
<path id="Union" fill-rule="evenodd" clip-rule="evenodd" d="M14.8875 66.804C14.8875 68.3852 16.1693 69.667 17.7505 69.667C19.3317 69.667 20.6135 68.3852 20.6135 66.804L20.6136 49.8919C20.6136 45.2945 23.4766 40.8624 23.4766 36.2651C23.4766 31.6678 20.6136 27.2356 20.6136 22.6383L20.6136 2.86333C20.6136 1.28213 19.3317 0.00031971 17.7505 0.000319433C16.1693 0.000319157 14.8875 1.28213 14.8875 2.86333L14.8875 13.8382C14.8875 21.4806 7.88422 27.4321 2.13931 32.4722C0.835518 33.6161 -0.000144602 34.9036 -0.00014484 36.2651C-0.000145142 37.9876 1.33743 39.5916 3.2683 40.9362C8.89125 44.8516 14.8875 50.4087 14.8875 57.2606L14.8875 66.804Z" fill="#5030E5"/>
</mask>
<g mask="url(#mask0_211_7547)">
<rect id="Rectangle 6469" width="22.9041" height="48.6712" transform="matrix(1 1.74846e-07 1.74846e-07 -1 -7.9043 61.0781)" fill="#5030E5"/>
</g>
</g>
</svg>
